<?xml version="1.0" encoding="utf-8"?>
<!-- Generator: Adobe Illustrator 19.2.1, SVG Export Plug-In . SVG Version: 6.00 Build 0)  -->
<svg version="1.1" id="图层_1" xmlns="http://www.w3.org/2000/svg"  x="0px" y="0px"
	 viewBox="0 0 25 25" style="enable-background:new 0 0 25 25;" xml:space="preserve">
<style type="text/css">
	.st0{fill:#2C353A;}
	.st1{fill:#FFFFFF;}
</style>
<g>
	<path class="st0" d="M23.4,10L23.4,10c0.5-0.3,0.7-0.9,0.5-1.7c0,0-0.5-1.4-1-2.2c-0.5-0.9-1.4-2-1.5-2c-0.5-0.5-1-0.7-1.5-0.5
		h-0.2c-1.5,0.9-3.6,0.3-4.4-1.2c-0.2-0.3-0.3-1.2-0.3-1.2c0-0.7-0.5-1.2-1.2-1.2l0,0h-3.6l0,0C10,0,9.9,0.2,9.7,0.2
		c-0.7,0.3-0.8,0.7-1,1C8.5,1.7,8,3.2,7.1,3.7c-0.8,0.5-2.4,0.2-2.9,0c-0.5,0-1,0-1.4,0.2L2.4,4.4l0,0L0.5,7.7l0,0
		C0.2,8.2,0.4,9,0.9,9.4c0,0,0.5,0.5,0.8,1c0.8,1.5,0.3,3.6-1.2,4.4H0.4c-0.3,0.3-0.5,1-0.2,1.7c0,0,0.5,1.4,1,2.2
		c0.5,0.9,1.4,2,1.5,2c0.5,0.5,1,0.7,1.5,0.5l0,0h0.2C6,20.4,8,20.9,8.8,22.4c0.3,0.5,0.3,1.2,0.3,1.2c0,0.7,0.7,1.2,1.4,1.4l0,0
		h3.6l0,0c0.2,0,0.3-0.2,0.5-0.2c0.3-0.2,0.7-0.7,0.8-1c0.2-0.5,0.7-2.2,1.5-2.6c0.8-0.5,2.5-0.2,3.1,0c0.3,0.2,0.8,0,1.4-0.2
		c0.2-0.2,0.3-0.2,0.5-0.3l0,0l1.9-3.1l0,0c0.3-0.7,0.2-1.4-0.5-1.9c0,0-0.5-0.5-0.8-1C21.4,12.9,21.9,10.9,23.4,10L23.4,10z"/>
</g>
<g>
	<path class="st1" d="M14.2,13c1-0.7,1.7-1.8,1.7-3.1c0-2.1-1.7-3.8-3.8-3.8c-2.1,0-3.8,1.7-3.8,3.8c0,1.3,0.7,2.5,1.7,3.1
		c-2.1,0.9-3.6,2.9-3.6,5.3c0,0.3,0.2,0.6,0.6,0.6c0.3,0,0.6-0.2,0.6-0.6c0-2.6,2.1-4.6,4.6-4.6c2.6,0,4.6,2.1,4.6,4.6
		c0,0.3,0.2,0.6,0.6,0.6c0.3,0,0.6-0.2,0.6-0.6C17.8,16,16.3,13.9,14.2,13z M9.3,9.9c0-1.5,1.2-2.7,2.7-2.7c1.5,0,2.7,1.2,2.7,2.7
		c0,1.5-1.2,2.7-2.7,2.7C10.5,12.6,9.3,11.4,9.3,9.9z"/>
</g>
</svg>
