<?xml version="1.0" encoding="utf-8"?>
<!-- Generator: Adobe Illustrator 19.2.1, SVG Export Plug-In . SVG Version: 6.00 Build 0)  -->
<svg version="1.1" id="图层_1" xmlns="http://www.w3.org/2000/svg"  x="0px" y="0px"
	 viewBox="0 0 25 25" style="enable-background:new 0 0 25 25;" xml:space="preserve">
<style type="text/css">
	.st0{fill:#2C353A;}
	.st1{fill:#FFFFFF;}
</style>
<g>
	<path class="st0" d="M12.5,0C19.4,0,25,5.6,25,12.5C25,19.4,19.4,25,12.5,25C5.6,25,0,19.4,0,12.5C0,5.6,5.6,0,12.5,0L12.5,0z"/>
</g>
<g>
	<path class="st1" d="M16.4,8c0,0.2,0.1,0.4,0.2,0.5v0c1.1,1.1,1.7,2.6,1.7,4.1c0,3.2-2.6,5.8-5.8,5.8c-3.2,0-5.8-2.6-5.8-5.8
		c0-1.5,0.6-3,1.7-4.1l0,0C8.5,8.4,8.6,8.2,8.6,8c0-0.2-0.1-0.4-0.2-0.5C8.2,7.3,8.1,7.2,7.9,7.2c-0.2,0-0.4,0.1-0.5,0.2
		C6,8.8,5.2,10.7,5.2,12.6c0,4,3.3,7.3,7.3,7.3c4,0,7.3-3.3,7.3-7.3c0-1.9-0.8-3.8-2.1-5.2c-0.1-0.1-0.3-0.2-0.5-0.2
		c-0.2,0-0.4,0.1-0.5,0.2C16.5,7.6,16.4,7.8,16.4,8L16.4,8z"/>
	<path class="st1" d="M12,5.3c-0.1,0.1-0.2,0.3-0.2,0.5v6.8c0,0.2,0.1,0.4,0.2,0.5v0c0.1,0.1,0.3,0.2,0.5,0.2c0.2,0,0.4-0.1,0.5-0.2
		v0c0.1-0.1,0.2-0.3,0.2-0.5V5.8c0-0.2-0.1-0.4-0.2-0.5c-0.1-0.1-0.3-0.2-0.5-0.2C12.3,5.1,12.1,5.2,12,5.3L12,5.3L12,5.3z"/>
</g>
</svg>
